<svg xmlns="http://www.w3.org/2000/svg" xmlns:xlink="http://www.w3.org/1999/xlink" width="30" height="30" viewBox="0 0 64 64"><g id="surface1192609"><path style="stroke:none;fill-rule:nonzero;fill:#ff3860;fill-opacity:1" d="M 49.230469 3.691406 C 48.550781 3.691406 48 4.242188 48 4.921875 C 48 5.601562 48.550781 6.152344 49.230469 6.152344 C 49.910156 6.152344 50.460938 5.601562 50.460938 4.921875 C 50.460938 4.242188 49.910156 3.691406 49.230469 3.691406 Z M 10.460938 4.921875 C 8.085938 4.921875 6.152344 6.855469 6.152344 9.230469 C 6.152344 11.605469 8.085938 13.539062 10.460938 13.539062 C 12.835938 13.539062 14.769531 11.605469 14.769531 9.230469 C 14.769531 6.855469 12.835938 4.921875 10.460938 4.921875 Z M 32 6.152344 C 17.75 6.152344 6.152344 17.75 6.152344 32 C 6.152344 46.25 17.75 57.847656 32 57.847656 C 46.25 57.847656 57.847656 46.25 57.847656 32 C 57.847656 17.75 46.25 6.152344 32 6.152344 Z M 10.460938 7.382812 C 11.480469 7.382812 12.308594 8.210938 12.308594 9.230469 C 12.308594 10.25 11.480469 11.078125 10.460938 11.078125 C 9.445312 11.078125 8.617188 10.25 8.617188 9.230469 C 8.617188 8.210938 9.445312 7.382812 10.460938 7.382812 Z M 32 8.617188 C 44.894531 8.617188 55.382812 19.105469 55.382812 32 C 55.382812 44.894531 44.894531 55.382812 32 55.382812 C 19.105469 55.382812 8.617188 44.894531 8.617188 32 C 8.617188 19.105469 19.105469 8.617188 32 8.617188 Z M 32 12.308594 C 21.140625 12.308594 12.308594 21.140625 12.308594 32 C 12.308594 42.859375 21.140625 51.691406 32 51.691406 C 42.859375 51.691406 51.691406 42.859375 51.691406 32 C 51.691406 21.140625 42.859375 12.308594 32 12.308594 Z M 32 14.769531 C 41.5 14.769531 49.230469 22.5 49.230469 32 C 49.230469 41.5 41.5 49.230469 32 49.230469 C 22.5 49.230469 14.769531 41.5 14.769531 32 C 14.769531 22.5 22.5 14.769531 32 14.769531 Z M 57.847656 14.769531 C 57.167969 14.769531 56.617188 15.320312 56.617188 16 C 56.617188 16.679688 57.167969 17.230469 57.847656 17.230469 C 58.527344 17.230469 59.078125 16.679688 59.078125 16 C 59.078125 15.320312 58.527344 14.769531 57.847656 14.769531 Z M 6.152344 16 C 5.472656 16 4.921875 16.550781 4.921875 17.230469 C 4.921875 17.910156 5.472656 18.460938 6.152344 18.460938 C 6.832031 18.460938 7.382812 17.910156 7.382812 17.230469 C 7.382812 16.550781 6.832031 16 6.152344 16 Z M 30.695312 17.230469 C 28.691406 17.230469 27.109375 18.933594 27.25 20.933594 L 28.3125 35.78125 C 28.355469 36.425781 28.894531 36.921875 29.539062 36.921875 L 35.691406 36.921875 C 36.339844 36.921875 36.875 36.425781 36.921875 35.78125 L 37.980469 20.933594 C 38.125 18.933594 36.539062 17.230469 34.535156 17.230469 Z M 30.695312 19.691406 L 34.535156 19.691406 C 35.105469 19.691406 35.566406 20.175781 35.523438 20.757812 L 34.546875 34.460938 L 30.683594 34.460938 L 29.707031 20.757812 C 29.664062 20.183594 30.117188 19.691406 30.695312 19.691406 Z M 31.464844 38.152344 C 29.726562 38.152344 28.308594 39.570312 28.308594 41.3125 L 28.308594 43.609375 C 28.308594 45.351562 29.726562 46.769531 31.46875 46.769531 L 33.765625 46.769531 C 35.507812 46.769531 36.921875 45.351562 36.921875 43.609375 L 36.921875 41.3125 C 36.921875 39.570312 35.503906 38.152344 33.765625 38.152344 Z M 31.464844 40.617188 L 33.765625 40.617188 C 34.148438 40.617188 34.460938 40.929688 34.460938 41.3125 L 34.460938 43.609375 C 34.460938 43.996094 34.148438 44.308594 33.765625 44.308594 L 31.464844 44.308594 C 31.082031 44.308594 30.769531 43.996094 30.769531 43.609375 L 30.769531 41.3125 C 30.769531 40.929688 31.082031 40.617188 31.464844 40.617188 Z M 6.152344 46.769531 C 5.472656 46.769531 4.921875 47.320312 4.921875 48 C 4.921875 48.679688 5.472656 49.230469 6.152344 49.230469 C 6.832031 49.230469 7.382812 48.679688 7.382812 48 C 7.382812 47.320312 6.832031 46.769531 6.152344 46.769531 Z M 57.847656 46.769531 C 57.167969 46.769531 56.617188 47.320312 56.617188 48 C 56.617188 48.679688 57.167969 49.230469 57.847656 49.230469 C 58.527344 49.230469 59.078125 48.679688 59.078125 48 C 59.078125 47.320312 58.527344 46.769531 57.847656 46.769531 Z M 51.691406 52.921875 C 49.65625 52.921875 48 54.578125 48 56.617188 C 48 58.652344 49.65625 60.308594 51.691406 60.308594 C 53.726562 60.308594 55.382812 58.652344 55.382812 56.617188 C 55.382812 54.578125 53.726562 52.921875 51.691406 52.921875 Z M 51.691406 55.382812 C 52.371094 55.382812 52.921875 55.9375 52.921875 56.617188 C 52.921875 57.292969 52.371094 57.847656 51.691406 57.847656 C 51.011719 57.847656 50.460938 57.292969 50.460938 56.617188 C 50.460938 55.9375 51.011719 55.382812 51.691406 55.382812 Z M 13.539062 56.617188 C 12.859375 56.617188 12.308594 57.167969 12.308594 57.847656 C 12.308594 58.527344 12.859375 59.078125 13.539062 59.078125 C 14.21875 59.078125 14.769531 58.527344 14.769531 57.847656 C 14.769531 57.167969 14.21875 56.617188 13.539062 56.617188 Z M 13.539062 56.617188"/></g></svg>